<?xml version="1.0" standalone="no"?>
<!DOCTYPE svg PUBLIC "-//W3C//DTD SVG 20010904//EN"
 "http://www.w3.org/TR/2001/REC-SVG-20010904/DTD/svg10.dtd">
<svg version="1.0" xmlns="http://www.w3.org/2000/svg"
 width="433.000000pt" height="433.000000pt" viewBox="0 0 433.000000 433.000000"
 preserveAspectRatio="xMidYMid meet">

<g transform="translate(0.000000,433.000000) scale(0.100000,-0.100000)"
fill="#000000" stroke="none">
<path d="M2114 4324 c-16 -7 -5 -44 12 -44 8 0 14 10 14 25 0 25 -4 28 -26 19z"/>
<path d="M2155 4310 c8 -24 -28 -66 -46 -55 -7 5 -10 4 -5 -3 3 -6 2 -13 -4
-17 -5 -3 -10 -1 -10 4 0 15 -43 14 -58 -1 -9 -9 -12 -9 -12 0 0 7 5 12 10 12
6 0 10 16 10 36 l0 36 -77 -6 c-83 -7 -218 -29 -295 -48 -32 -8 -45 -15 -41
-25 3 -7 0 -19 -6 -27 -14 -17 -51 -9 -51 10 0 19 -6 18 -117 -20 -191 -65
-302 -119 -476 -234 -169 -110 -392 -311 -475 -426 l-30 -42 96 4 c76 4 110
10 165 33 72 30 103 33 48 4 -53 -27 -30 -41 29 -17 8 3 33 10 55 16 52 14 56
42 5 39 -29 -2 -32 -1 -17 8 10 6 27 9 38 6 10 -3 19 -1 19 4 0 5 7 9 15 9 8
0 15 8 15 18 0 9 14 28 32 42 17 14 41 35 53 48 12 12 30 22 39 22 19 0 21 11
4 28 -9 9 -7 12 11 12 21 0 23 4 18 30 -6 29 -5 30 43 36 35 5 47 10 43 20 -4
10 4 14 26 14 35 0 41 15 10 25 -13 5 -17 10 -11 18 5 7 8 20 7 30 -3 13 1 16
13 13 9 -3 52 -15 96 -26 76 -20 79 -20 100 -3 11 10 24 22 27 27 12 15 100
-5 173 -39 169 -79 203 -89 248 -73 21 8 32 8 37 0 9 -16 83 -22 96 -8 21 21
24 44 8 66 -15 21 -15 22 6 10 12 -6 25 -18 28 -26 3 -7 10 -11 15 -8 12 7 54
-12 85 -40 19 -16 25 -17 38 -6 10 8 19 9 28 3 21 -16 212 -15 251 1 33 14 34
13 40 -10 7 -26 80 -74 114 -74 11 0 24 -5 28 -11 8 -14 127 -6 225 15 50 10
79 11 118 3 64 -12 91 -2 174 72 32 28 61 51 64 51 3 0 3 -16 1 -35 -2 -19 0
-35 4 -35 4 0 8 -9 8 -21 0 -11 -4 -17 -10 -14 -12 8 -40 -12 -40 -28 0 -5 8
-3 18 5 20 17 52 13 52 -8 0 -8 7 -17 15 -20 8 -3 17 -14 20 -25 4 -10 15 -19
26 -19 21 0 24 -12 9 -41 -8 -13 -7 -19 0 -19 6 0 8 -4 5 -10 -3 -5 -1 -10 5
-10 8 0 8 -6 0 -20 -10 -19 -8 -20 34 -20 46 0 63 -12 58 -42 -3 -15 2 -17 30
-12 18 3 46 10 62 15 42 13 48 11 41 -10 -7 -22 13 -37 60 -44 17 -2 37 -6 45
-9 8 -3 35 -11 60 -18 25 -7 51 -17 59 -23 14 -12 141 -27 141 -17 0 18 -136
182 -227 273 -392 394 -892 617 -1441 641 -108 4 -113 4 -107 -14z m1505 -780
c13 -9 13 -10 0 -10 -8 0 -22 5 -30 10 -13 9 -13 10 0 10 8 0 22 -5 30 -10z"/>
<path d="M2760 3430 c0 -5 -11 -10 -25 -10 -14 0 -25 -4 -25 -10 0 -5 5 -10
10 -10 18 0 11 -20 -7 -21 -11 0 -13 -3 -5 -6 21 -8 13 -26 -9 -20 -15 4 -19
2 -15 -9 3 -8 1 -14 -5 -14 -6 0 -9 -7 -6 -14 4 -11 1 -13 -11 -9 -10 3 -8 -1
6 -12 18 -13 21 -20 11 -31 -9 -11 -9 -14 1 -14 10 0 10 -3 0 -15 -9 -11 -9
-15 -1 -15 7 0 25 -10 41 -22 22 -16 27 -25 19 -34 -8 -9 -5 -11 13 -8 13 2
18 2 12 -1 -7 -4 0 -17 19 -36 23 -23 27 -33 18 -42 -9 -9 -14 -9 -21 2 -7 12
-11 12 -24 2 -11 -9 -16 -10 -16 -2 0 6 -11 11 -25 11 -15 0 -25 -6 -25 -14 0
-8 -6 -17 -12 -19 -7 -3 -4 -6 8 -6 28 -1 36 -11 23 -28 -16 -19 -36 -16 -42
5 -2 11 -17 21 -33 25 -24 5 -29 11 -30 36 -1 20 4 31 15 34 11 3 8 5 -6 6
-13 0 -23 6 -23 11 0 15 -15 12 -72 -16 -134 -65 -145 -73 -153 -115 -2 -12
-13 -32 -23 -43 -11 -12 -17 -26 -15 -33 2 -7 -7 -15 -21 -19 -30 -7 -32 -20
-12 -59 13 -25 13 -30 -2 -50 -19 -25 -38 -23 -45 6 -5 17 -7 18 -33 4 -30
-15 -48 -11 -24 6 11 8 8 8 -10 3 -14 -4 -28 -12 -32 -18 -10 -15 -3 -32 11
-28 7 1 10 -2 6 -7 -3 -6 -13 -7 -22 -4 -11 4 -14 3 -9 -6 4 -6 2 -18 -4 -26
-7 -8 -10 -15 -6 -15 3 0 1 -11 -4 -25 -6 -16 -6 -26 1 -31 7 -4 7 -10 0 -18
-12 -14 4 -36 26 -36 7 0 13 -4 13 -9 0 -4 -12 -6 -27 -3 -22 4 -25 2 -20 -12
4 -10 3 -15 -3 -11 -19 12 -70 -19 -70 -42 0 -12 5 -25 10 -28 6 -4 8 -11 5
-16 -4 -5 0 -9 7 -9 10 0 10 -2 -1 -9 -10 -6 -2 -11 27 -16 23 -4 46 -4 51 0
6 3 13 -5 17 -19 4 -17 11 -23 22 -19 9 4 13 2 8 -5 -3 -6 3 -12 16 -14 21 -3
21 -4 3 -18 -10 -8 -16 -10 -12 -4 4 7 -2 14 -13 17 -11 3 -23 1 -26 -4 -3 -5
1 -9 8 -9 7 0 0 -11 -16 -25 -35 -30 -31 -30 -72 -4 -19 11 -39 17 -45 13 -8
-4 -9 -3 -5 4 4 7 2 12 -4 12 -6 0 -9 4 -6 9 3 5 -10 9 -30 9 -20 0 -39 5 -43
10 -9 15 -120 33 -158 26 -19 -4 -39 -2 -46 4 -7 6 -39 10 -71 8 -48 -3 -62
-8 -85 -32 -14 -15 -18 -22 -9 -15 10 7 34 12 55 11 21 -1 52 -1 68 0 59 4
156 -9 173 -22 6 -6 12 -21 12 -34 0 -13 5 -24 10 -24 22 0 8 -22 -20 -33 -16
-6 -30 -15 -30 -18 0 -4 -16 -24 -35 -45 -19 -20 -35 -31 -35 -24 0 7 -8 10
-20 7 -17 -4 -18 -2 -9 14 6 13 6 19 -1 19 -18 0 -50 -34 -50 -53 0 -10 -4
-15 -10 -12 -5 3 -10 14 -10 23 0 19 -57 54 -94 58 -17 2 -26 -4 -29 -17 -3
-11 -14 -19 -26 -19 -12 0 -21 -6 -21 -15 0 -8 5 -15 10 -15 19 0 10 -38 -10
-43 -13 -3 -20 -14 -20 -29 0 -20 9 -26 63 -41 38 -11 74 -16 90 -12 22 6 26
4 21 -9 -6 -16 -17 -20 -41 -17 -7 1 -24 -6 -38 -15 -25 -16 -27 -16 -55 5
-16 11 -34 21 -41 21 -6 0 -8 7 -5 16 3 9 2 12 -5 8 -6 -3 -8 -17 -4 -33 4
-14 8 -31 9 -38 1 -7 10 -20 19 -31 20 -22 22 -48 5 -56 -7 -3 -3 -3 10 0 22
5 26 -3 25 -43 -1 -7 11 -13 26 -13 l26 0 -28 -25 c-31 -29 -35 -40 -11 -31
13 5 12 0 -5 -29 -22 -37 -18 -43 13 -20 25 19 43 19 43 0 0 -8 -3 -15 -7 -15
-4 0 -12 -12 -19 -27 l-13 -28 22 23 c12 13 24 21 26 19 8 -8 -36 -98 -45 -92
-5 3 -12 1 -16 -5 -4 -6 -10 -8 -15 -5 -7 4 -16 -31 -22 -87 -2 -13 -6 -14
-15 -6 -11 8 -12 7 -7 -6 5 -12 0 -19 -15 -23 -11 -3 -21 -11 -21 -18 0 -6 -9
-20 -20 -30 -12 -11 -18 -26 -15 -35 6 -20 -21 -36 -29 -17 -3 7 -2 -7 1 -30
5 -38 4 -41 -14 -37 -18 5 -20 1 -19 -40 1 -25 5 -46 9 -46 5 0 14 -6 21 -13
13 -13 10 -37 -5 -37 -4 0 -6 7 -3 15 4 11 -1 15 -17 15 -18 0 -20 -3 -11 -12
7 -7 12 -25 12 -40 0 -15 4 -28 8 -28 4 0 9 -12 10 -26 1 -14 9 -35 17 -47 14
-20 15 -19 15 26 0 26 -4 47 -10 47 -12 0 -14 37 -2 42 4 2 20 29 35 60 22 45
26 61 18 77 -15 27 -14 37 5 55 22 23 49 20 121 -14 34 -16 66 -30 71 -30 30
0 88 -26 114 -51 21 -22 33 -27 38 -19 5 8 23 10 51 7 47 -5 120 -24 104 -26
-16 -3 38 -30 59 -31 10 0 40 -17 65 -37 25 -21 50 -37 55 -35 5 2 5 -11 1
-30 -5 -18 -9 -55 -11 -81 -3 -57 -60 -175 -107 -225 -56 -58 -128 -87 -155
-60 -9 9 -16 7 -32 -7 -15 -14 -29 -16 -62 -11 -40 5 -41 5 -18 -8 14 -7 57
-21 96 -31 68 -17 70 -19 71 -49 1 -17 5 -60 10 -96 l8 -65 61 2 c59 1 61 0
79 -33 12 -22 21 -30 26 -23 11 18 93 -44 131 -99 27 -39 83 -102 181 -204 9
-10 17 -22 17 -28 0 -5 11 -10 25 -10 44 0 25 -54 -25 -73 -21 -8 29 -8 58 -1
15 4 22 14 22 30 0 13 5 24 10 24 6 0 10 -9 10 -20 0 -27 30 -26 155 4 279 68
557 201 784 374 41 31 82 70 92 86 18 29 18 30 -9 55 -18 17 -36 24 -54 22
-34 -3 -35 6 -8 77 13 33 20 76 20 117 0 37 4 65 10 65 22 0 8 22 -23 35 -49
20 -65 67 -70 203 -3 61 -1 112 4 112 12 0 11 37 -1 45 -5 3 -10 13 -10 20 0
24 83 101 130 121 25 10 53 28 62 40 9 11 36 33 60 50 53 36 73 60 118 139 42
75 64 102 111 137 20 15 54 45 75 68 21 22 42 40 46 40 19 0 98 99 98 122 0 9
9 18 20 21 11 3 20 13 20 23 0 35 43 134 61 139 9 3 21 20 24 36 4 17 13 33
20 35 7 3 16 26 20 52 3 26 13 57 21 70 14 21 13 27 -5 63 -12 22 -21 52 -21
67 0 15 -7 36 -15 46 -8 10 -12 22 -10 27 3 4 -7 17 -21 28 -15 11 -36 39 -47
62 -11 22 -26 43 -33 46 -8 3 -12 9 -9 13 3 5 -2 16 -12 25 -16 17 -12 25 19
37 12 5 -4 58 -17 58 -8 0 -27 13 -43 29 -16 17 -42 33 -57 37 -16 4 -53 31
-83 61 -30 29 -58 53 -63 53 -5 0 -9 11 -9 24 0 32 -91 111 -174 151 -34 17
-87 48 -117 69 -38 28 -66 41 -94 42 -22 1 -50 6 -62 9 -15 5 -23 3 -23 -4 0
-6 5 -11 11 -11 5 0 7 -5 4 -11 -4 -6 -14 -8 -24 -4 -13 5 -14 4 -3 -6 17 -19
15 -39 -5 -40 -10 0 -2 -7 17 -14 25 -10 29 -14 14 -14 -29 -1 -84 19 -113 41
-13 10 -30 18 -39 18 -12 0 -12 -2 -1 -17 12 -15 12 -16 -3 -10 -24 9 -23 -18
1 -44 15 -17 38 -22 113 -29 51 -4 81 -8 66 -9 -16 0 -36 -9 -47 -20 -16 -16
-24 -17 -67 -8 -86 18 -160 -12 -107 -42 28 -15 6 -26 -27 -14 -17 6 -30 9
-30 7 0 -2 11 -26 25 -53 25 -46 44 -62 94 -77 30 -8 113 -83 105 -95 -3 -5
-14 -9 -25 -9 -23 0 -24 -9 -5 -36 10 -13 11 -23 4 -31 -8 -10 -19 -8 -50 8
-31 16 -38 23 -27 30 8 5 22 6 32 3 30 -10 18 13 -24 45 -23 16 -52 46 -66 65
-31 46 -47 47 -40 1 9 -53 -9 -42 -28 18 -10 28 -42 102 -71 162 -46 96 -65
122 -146 206 -59 61 -105 101 -127 108 -42 14 -61 14 -61 1z m575 -341 c12
-19 -5 -23 -22 -6 -16 16 -16 17 -1 17 9 0 20 -5 23 -11z m-75 -59 c3 -3 34
-18 70 -33 l65 -26 -50 6 c-64 7 -119 29 -110 43 4 6 -1 18 -11 26 -17 14 -17
14 6 3 14 -7 27 -15 30 -19z m112 7 c13 -21 -25 -19 -67 3 l-40 21 50 -7 c28
-3 53 -11 57 -17z m-697 -60 c11 -12 13 -16 6 -9 -8 6 -23 12 -32 12 -9 0 -23
7 -30 16 -12 15 -11 16 11 9 14 -4 34 -17 45 -28z m-341 -194 c3 -8 4 -19 0
-24 -3 -5 1 -9 9 -9 8 0 17 -8 20 -17 3 -10 14 -30 23 -45 25 -38 12 -45 -21
-12 -15 15 -20 24 -11 21 9 -4 16 -2 16 3 0 6 -9 10 -19 10 -11 0 -22 4 -25 9
-3 5 -16 7 -28 3 -18 -4 -20 -2 -13 14 4 10 9 30 11 44 1 14 3 26 3 27 3 8 30
-11 35 -24z m450 -23 c14 -5 26 -14 26 -19 0 -6 -8 -7 -17 -4 -12 5 -15 2 -11
-9 4 -10 -2 -19 -18 -26 -15 -8 -22 -17 -18 -27 4 -10 0 -15 -11 -15 -9 0 -13
-4 -10 -10 3 -5 -3 -10 -14 -10 -12 0 -21 -4 -21 -10 0 -20 -69 -11 -92 12
-13 13 -17 23 -10 26 6 2 8 10 5 18 -3 9 1 14 12 14 9 0 14 4 11 9 -7 11 68
27 104 22 14 -1 22 1 18 5 -5 4 -3 13 3 21 14 16 11 15 43 3z m-624 -34 c0 -3
-4 -8 -10 -11 -5 -3 -10 -1 -10 4 0 6 5 11 10 11 6 0 10 -2 10 -4z m260 -117
c0 -5 -4 -9 -10 -9 -5 0 -10 7 -10 16 0 8 5 12 10 9 6 -3 10 -10 10 -16z
m-840 -808 c0 -5 -7 -12 -16 -15 -14 -5 -15 -4 -4 9 14 17 20 19 20 6z m135
-1 c3 -5 1 -10 -4 -10 -6 0 -11 5 -11 10 0 6 2 10 4 10 3 0 8 -4 11 -10z m15
-40 c0 -5 -5 -10 -11 -10 -5 0 -7 5 -4 10 3 6 8 10 11 10 2 0 4 -4 4 -10z
m-20 -24 c0 -3 -4 -8 -10 -11 -5 -3 -10 -1 -10 4 0 6 5 11 10 11 6 0 10 -2 10
-4z m-83 -63 c-3 -10 -5 -2 -5 17 0 19 2 27 5 18 2 -10 2 -26 0 -35z m133 27
c0 -5 -2 -10 -4 -10 -3 0 -8 5 -11 10 -3 6 -1 10 4 10 6 0 11 -4 11 -10z
m-100 -7 c0 -5 -5 -15 -10 -23 -8 -12 -10 -11 -10 8 0 12 5 22 10 22 6 0 10
-3 10 -7z"/>
<path d="M3335 3320 c-4 -6 6 -10 22 -10 22 0 25 2 13 10 -19 12 -27 12 -35 0z"/>
<path d="M3288 3313 c7 -3 16 -2 19 1 4 3 -2 6 -13 5 -11 0 -14 -3 -6 -6z"/>
<path d="M3200 3210 c8 -5 20 -10 25 -10 6 0 3 5 -5 10 -8 5 -19 10 -25 10 -5
0 -3 -5 5 -10z"/>
<path d="M970 3110 c0 -13 11 -13 30 0 12 8 11 10 -7 10 -13 0 -23 -4 -23 -10z"/>
<path d="M1403 3066 c-61 -29 -78 -43 -118 -97 l-46 -64 28 -12 c15 -7 36 -12
46 -13 10 0 34 -12 54 -27 39 -30 100 -36 128 -13 9 7 19 10 22 6 4 -4 1 -11
-6 -15 -9 -6 -10 -11 -2 -15 17 -11 28 1 41 39 6 19 16 33 21 30 5 -4 9 1 9 9
0 9 -6 15 -12 14 -7 -2 -13 6 -14 17 -1 56 -28 147 -48 160 -26 19 -18 20
-103 -19z m27 -46 c0 -5 -4 -10 -10 -10 -5 0 -10 5 -10 10 0 6 5 10 10 10 6 0
10 -4 10 -10z"/>
<path d="M958 2824 c-50 -69 -81 -141 -64 -151 10 -6 11 -22 6 -63 -4 -30 -4
-59 1 -65 5 -5 9 -37 9 -71 0 -34 7 -79 16 -100 13 -31 41 -268 44 -366 0 -9
6 -23 13 -30 6 -7 13 -31 14 -53 2 -22 5 -59 9 -82 l5 -42 45 21 c43 21 44 23
46 72 1 28 3 71 4 96 2 25 -6 72 -15 105 -22 71 -36 136 -51 225 -6 36 -19
108 -30 160 -17 87 -19 231 -6 330 2 14 0 34 -3 44 -6 16 -12 12 -43 -30z"/>
<path d="M1085 1807 c-40 -13 -64 -35 -81 -75 -13 -31 -82 -126 -126 -173 -24
-25 -23 -27 14 -37 17 -4 35 -16 40 -25 4 -9 12 -25 17 -34 4 -10 18 -19 30
-21 11 -2 21 -9 21 -17 0 -14 75 -85 90 -85 6 0 10 33 10 78 0 64 14 151 34
207 2 6 4 14 4 19 0 5 7 13 16 18 21 12 20 23 -12 94 -27 60 -27 61 -57 51z"/>
<path d="M1540 1719 c0 -5 5 -7 10 -4 6 3 10 8 10 11 0 2 -4 4 -10 4 -5 0 -10
-5 -10 -11z"/>
<path d="M1157 1626 c-28 -42 -48 -139 -45 -212 5 -102 13 -97 89 58 13 27 10
67 -9 127 l-18 53 -17 -26z"/>
<path d="M760 1580 c0 -5 7 -10 15 -10 8 0 15 5 15 10 0 6 -7 10 -15 10 -8 0
-15 -4 -15 -10z"/>
<path d="M1180 1389 c-30 -67 -25 -83 21 -58 17 8 19 17 14 52 -4 23 -8 44
-11 46 -2 2 -13 -16 -24 -40z"/>
<path d="M3878 1012 c-29 -17 -36 -32 -17 -32 5 0 8 -4 5 -9 -3 -5 11 -12 31
-16 25 -4 38 -2 44 7 14 22 10 47 -10 58 -24 12 -20 13 -53 -8z"/>
<path d="M1128 552 c-30 -4 -68 -44 -68 -72 0 -10 6 -32 13 -49 12 -28 15 -30
27 -17 7 9 19 16 26 16 8 0 16 12 20 28 3 15 10 42 14 59 9 37 6 40 -32 35z"/>
<path d="M2111 363 c0 -10 4 -27 9 -38 7 -17 9 -15 9 12 1 17 -3 35 -9 38 -5
3 -10 -2 -9 -12z"/>
<path d="M1184 352 c-7 -10 -15 -36 -19 -59 -6 -36 -4 -43 15 -53 12 -6 23
-10 25 -8 3 3 8 89 6 121 -1 22 -13 22 -27 -1z"/>
<path d="M2116 282 c-7 -12 5 -52 15 -52 5 0 9 14 9 30 0 28 -13 40 -24 22z"/>
<path d="M2083 201 c-11 -15 -24 -42 -28 -61 -11 -50 -43 -110 -63 -118 -43
-17 216 -29 283 -12 25 6 27 8 13 14 -26 12 -22 35 7 46 26 10 31 28 16 58 -5
9 -13 30 -17 46 -5 16 -15 31 -21 34 -18 5 -16 -13 2 -32 22 -22 19 -32 -20
-50 -19 -9 -35 -22 -35 -28 0 -21 -69 55 -80 88 -15 43 -33 48 -57 15z"/>
<path d="M2318 13 c6 -2 18 -2 25 0 6 3 1 5 -13 5 -14 0 -19 -2 -12 -5z"/>
</g>
</svg>
